<svg width="579" height="208" viewBox="0 0 579 208" fill="none" xmlns="http://www.w3.org/2000/svg">
<path fill-rule="evenodd" clip-rule="evenodd" d="M456.688 112.352L498.359 72.088C511.135 59.8975 517.524 47.5898 517.524 35.1649C517.524 24.4982 514.007 16 506.974 9.67034C499.941 3.22345 490.681 0 479.194 0C466.183 0 455.927 3.80953 448.425 11.4286C441.04 18.9304 437.348 28.8938 437.348 41.3187H451.238C451.238 32.5275 453.641 25.5531 458.447 20.3956C463.253 15.2381 470.051 12.6594 478.842 12.6594C486.227 12.6594 492.146 14.7692 496.601 18.989C501.172 23.0916 503.458 28.5422 503.458 35.3407C503.458 44.1319 498.769 53.2162 489.392 62.5935L436.996 113.758L437.348 130.663V144.176H517.524V130.663H437.348L456.688 112.352Z" fill="currentColor"/>
<path d="M574.864 94.2417L540.578 131.106C552.534 131.692 561.911 137.554 568.71 144.352C575.508 151.151 578.908 159.824 578.908 170.374C578.908 181.275 575.04 190.301 567.304 197.451C559.567 204.484 549.194 208 536.183 208C523.523 208 513.442 204.718 505.94 198.154C498.556 191.472 494.453 180.806 493.633 169.319H507.699C508.285 177.29 511.04 183.619 515.963 188.308C520.886 192.997 527.626 195.34 536.183 195.34C545.091 195.34 552.065 192.938 557.105 188.132C562.263 183.326 564.842 177.172 564.842 169.67C564.842 162.169 562.204 156.073 556.93 151.384C551.772 146.579 544.036 144.176 533.721 144.176H525.809V130.754L558.336 95.6479H505.062V83.1646H574.864V94.2417Z" fill="currentColor"/>
<path fill-rule="evenodd" clip-rule="evenodd" d="M281.496 130.774C296.559 130.774 308.77 118.563 308.77 103.5C308.77 88.4371 296.559 76.2262 281.496 76.2262C266.433 76.2262 254.222 88.4371 254.222 103.5C254.222 118.563 266.433 130.774 281.496 130.774ZM281.496 143C303.311 143 320.996 125.315 320.996 103.5C320.996 81.6848 303.311 64 281.496 64C259.681 64 241.996 81.6848 241.996 103.5C241.996 125.315 259.681 143 281.496 143Z" fill="currentColor"/>
<path d="M308.996 102V63H320.996V102H308.996Z" fill="currentColor"/>
<path d="M308.996 102V63H320.996V102H308.996Z" fill="currentColor"/>
<path d="M224.996 55V27H236.996V55H224.996Z" fill="currentColor"/>
<path d="M224.996 55V27H236.996V55H224.996Z" fill="currentColor"/>
<path d="M404.996 96.6434V143H393.393V96.6434C393.393 89.9251 391.227 84.447 386.895 80.2093C382.563 75.9716 377.097 73.8527 370.496 73.8527C363.895 73.8527 358.429 75.9716 354.097 80.2093C349.765 84.447 347.599 89.9251 347.599 96.6434V143H335.996V96.6434C335.996 86.7209 339.245 78.6072 345.743 72.3023C352.24 66.1008 360.492 63 370.496 63C380.501 63 388.752 66.1008 395.249 72.3023C401.747 78.6072 404.996 86.7209 404.996 96.6434Z" fill="currentColor"/>
<path d="M175 142.994V102.994H187V142.994H175Z" fill="currentColor"/>
<path d="M175 142.994V102.994H187V142.994H175Z" fill="currentColor"/>
<path d="M90.9961 109.777V64H102.599V109.777C102.599 116.411 104.765 121.821 109.097 126.006C113.429 130.191 118.895 132.283 125.496 132.283C132.097 132.283 137.563 130.191 141.895 126.006C146.227 121.821 148.393 116.411 148.393 109.777V64H159.996V109.777C159.996 119.576 156.747 127.588 150.249 133.814C143.752 139.938 135.501 143 125.496 143C115.492 143 107.24 139.938 100.743 133.814C94.245 127.588 90.9961 119.576 90.9961 109.777Z" fill="currentColor"/>
<rect y="27" width="13" height="114" fill="currentColor"/>
<path d="M49.8302 64H63L13.1698 141H0L49.8302 64Z" fill="currentColor"/>
<path d="M28 97.5L40.6828 97L76 141H62.5884L28 97.5Z" fill="currentColor"/>
<path d="M175 103.808C174.999 103.703 174.996 103.599 174.996 103.494C174.996 103.389 174.999 103.284 175 103.18V103.808ZM213.996 76.2266C199.33 76.4902 187.492 88.3282 187.229 102.994H175.002C175.268 81.5757 192.578 64.2657 213.996 64V76.2266Z" fill="currentColor"/>
</svg>
