<svg xmlns="http://www.w3.org/2000/svg" viewBox="0 0 200 280" fill="none">
  <defs>
    <g id="cornerOrnament" stroke="#E8C588" stroke-linecap="round" stroke-linejoin="round">
      <path d="M2 56C7 28 23 10 56 2" stroke-opacity=".54" stroke-width="1.55"/>
      <path d="M12 48C16 31 28 18 45 13" stroke-opacity=".4" stroke-width="1.18"/>
      <path d="M18 10C30 16 40 27 46 40" stroke-opacity=".34" stroke-width="1.04"/>
      <path d="M6 34C15 34 23 28 29 18" stroke-opacity=".3" stroke-width="1"/>
      <path d="M20 50C28 46 35 39 39 29" stroke-opacity=".26" stroke-width=".92"/>
      <circle cx="24" cy="24" r="1.8" fill="#E8C588" fill-opacity=".18" stroke="none"/>
      <circle cx="14" cy="39" r="1.3" fill="#E8C588" fill-opacity=".14" stroke="none"/>
    </g>

    <g id="axisEmblem" stroke="#E8C588" stroke-linecap="round" stroke-linejoin="round">
      <path d="M100 0L105 5L100 10L95 5L100 0Z" stroke-opacity=".42" stroke-width="1"/>
      <path d="M100 10V18" stroke-opacity=".22" stroke-width=".9"/>
      <path d="M88 5H94" stroke-opacity=".16" stroke-width=".9"/>
      <path d="M106 5H112" stroke-opacity=".16" stroke-width=".9"/>
      <circle cx="84" cy="5" r="1.1" fill="#E8C588" fill-opacity=".12" stroke="none"/>
      <circle cx="116" cy="5" r="1.1" fill="#E8C588" fill-opacity=".12" stroke="none"/>
    </g>
  </defs>

  <rect x="8" y="8" width="184" height="264" rx="18" stroke="#E8C588" stroke-opacity=".24" stroke-width="1.8"/>
  <rect x="18" y="18" width="164" height="244" rx="14" stroke="#E8C588" stroke-opacity=".13" stroke-width="1.15"/>
  <rect x="28" y="28" width="144" height="224" rx="10" stroke="#E8C588" stroke-opacity=".08" stroke-width=".9"/>

  <use href="#cornerOrnament" transform="translate(24 24)"/>
  <use href="#cornerOrnament" transform="translate(176 24) scale(-1 1)"/>
  <use href="#cornerOrnament" transform="translate(24 256) scale(1 -1)"/>
  <use href="#cornerOrnament" transform="translate(176 256) scale(-1 -1)"/>

  <use href="#axisEmblem" transform="translate(0 50)"/>
  <use href="#axisEmblem" transform="translate(0 220)"/>
</svg>
